# xmcd
#
# Track frame offsets:
# 150
# 11843
# 26242
# 42245
# 61287
# 76894
# 94940
# 117345
# 126570
# 142096
# 162352
#
# Disc length: 2326 seconds
#
# Revision: 0
# Processed by: cddbd v1.5PL3 Copyright (c) Steve Scherf et al.
# Submitted via: Axialis_AX_CDPlayer 2.6
#
DISCID=9c09140b
DTITLE=Stratochief - In Search Of The Seven Foot Woman
DYEAR=1900
DGENRE=
TTITLE0=Music To My Ears
TTITLE1=Brother 12
TTITLE2=Kitchen Clock
TTITLE3=Put Your Diamond In The Drawer
TTITLE4=Where's My Moses
TTITLE5=Bullets
TTITLE6=Shoelace Easy
TTITLE7=Tennesse
TTITLE8=Temptation
TTITLE9=Hooray for Beer
TTITLE10=Bonus Track
EXTD=submitted from the Rismixlive Music Library - www.rismixlive.com
EXTT0=
EXTT1=
EXTT2=
EXTT3=
EXTT4=
EXTT5=
EXTT6=
EXTT7=
EXTT8=
EXTT9=
EXTT10=
PLAYORDER=
